<?xml version="1.0" standalone="no"?>
<!DOCTYPE svg PUBLIC "-//W3C//DTD SVG 20010904//EN"
 "http://www.w3.org/TR/2001/REC-SVG-20010904/DTD/svg10.dtd">
<svg version="1.0" xmlns="http://www.w3.org/2000/svg"
 width="1280.000000pt" height="1195.000000pt" viewBox="0 0 1280.000000 1195.000000"
 preserveAspectRatio="xMidYMid meet">
<metadata>
Created by potrace 1.15, written by Peter Selinger 2001-2017
</metadata>
<g transform="translate(0.000000,1195.000000) scale(0.100000,-0.100000)"
fill="#000000" stroke="none">
<path d="M6803 11943 c20 -2 54 -2 75 0 20 2 3 4 -38 4 -41 0 -58 -2 -37 -4z"/>
<path d="M7012 11926 c822 -120 1438 -732 1569 -1561 17 -103 17 -407 0 -510
-41 -260 -142 -536 -282 -770 -73 -121 -219 -319 -307 -415 l-60 -65 -23 20
-24 20 20 -24 20 -23 -100 -96 c-253 -241 -602 -475 -1021 -685 -311 -155
-982 -436 -989 -414 -2 7 -11 55 -21 107 -52 286 -170 622 -315 900 -400 762
-1080 1327 -1825 1516 -413 104 -794 95 -1168 -27 -523 -171 -927 -568 -1096
-1078 -71 -213 -84 -297 -84 -546 0 -192 2 -233 22 -324 88 -403 292 -746 582
-981 30 -24 8 1 -49 55 -128 122 -218 233 -299 368 -390 646 -297 1471 226
2018 254 266 572 432 967 504 142 26 414 31 573 11 1158 -148 2152 -1184 2371
-2472 l18 -103 -122 -49 -123 -49 -42 116 c-109 300 -297 631 -511 901 -103
131 -362 391 -490 493 -354 283 -731 456 -1114 513 -145 22 -408 14 -543 -15
-274 -59 -500 -175 -678 -347 -242 -237 -377 -539 -389 -876 l-4 -123 9 100
c26 281 82 454 216 658 61 93 238 270 334 334 296 198 661 269 1055 207 423
-66 856 -307 1240 -689 329 -327 571 -701 733 -1135 77 -204 83 -177 -55 -235
-411 -170 -812 -375 -1068 -545 -38 -25 -75 -50 -82 -54 -7 -3 8 35 32 86 67
144 174 488 208 673 2 11 7 -17 11 -62 15 -157 -14 -334 -73 -452 -19 -37 -27
-61 -19 -61 6 0 49 18 94 40 103 50 183 125 222 207 25 54 27 67 26 183 0 109
-5 146 -39 290 -34 145 -39 181 -39 296 l-1 132 -25 -18 c-37 -27 -241 -236
-300 -309 -151 -184 -304 -459 -354 -636 -51 -179 -53 -347 -6 -485 17 -52 19
-65 8 -75 -7 -6 -58 -50 -114 -97 -284 -245 -525 -561 -695 -913 -94 -195
-145 -332 -205 -553 l-17 -63 -28 49 c-36 64 -162 197 -263 278 -45 36 -169
124 -276 197 -107 72 -219 148 -248 170 -30 21 -56 37 -59 34 -6 -6 41 -413
63 -542 39 -236 103 -436 185 -582 63 -112 182 -229 279 -276 73 -36 189 -72
198 -62 12 11 13 156 3 223 -31 201 -172 511 -325 720 -63 85 -25 64 54 -31
114 -135 204 -287 295 -501 l47 -110 2 -245 c2 -193 8 -277 25 -391 68 -449
228 -857 494 -1255 243 -365 660 -727 1084 -939 804 -402 1772 -416 2570 -36
320 152 583 339 839 594 251 252 458 544 590 833 30 66 31 74 16 82 -26 13
-259 111 -266 111 -3 0 -6 -5 -6 -11 0 -18 -128 -266 -187 -361 -265 -429
-671 -791 -1138 -1014 -255 -122 -505 -195 -805 -235 -126 -17 -507 -18 -640
-1 -506 63 -955 246 -1350 550 -204 157 -473 457 -625 697 -139 220 -301 605
-340 809 -18 91 -20 366 -5 501 58 502 284 977 632 1325 191 191 366 318 599
434 254 127 519 207 869 265 211 35 379 56 386 48 9 -8 -25 -242 -56 -386
-103 -488 -321 -934 -638 -1311 -98 -117 -321 -336 -422 -414 -103 -81 -104
-82 -78 -119 12 -17 43 -52 70 -79 l47 -47 69 58 c209 174 373 347 538 566
128 171 218 323 391 665 195 383 284 616 368 963 18 77 35 140 37 142 2 1 73
10 158 20 486 53 805 115 1093 215 636 219 1068 646 1178 1165 57 272 23 558
-96 809 -34 72 -130 226 -140 226 -7 0 -6 -2 53 -93 264 -411 253 -955 -28
-1372 -314 -465 -883 -749 -1708 -851 -152 -18 -496 -54 -498 -51 -1 1 6 58
16 127 39 272 49 539 29 808 -6 81 -11 151 -12 156 -1 4 106 54 238 110 355
151 497 216 730 335 675 345 1140 723 1452 1183 l66 96 66 16 c36 9 161 31
277 50 230 37 337 68 418 120 129 83 210 236 249 476 28 169 49 560 30 560
-10 0 -199 -139 -313 -229 -222 -175 -377 -358 -479 -565 -43 -86 -84 -196
-77 -204 9 -8 140 59 226 116 101 67 249 212 308 301 53 81 54 69 0 -28 -91
-167 -215 -302 -373 -406 -78 -51 -294 -175 -306 -175 -3 0 29 69 71 153 117
235 183 449 215 690 46 353 -24 740 -194 1075 -249 489 -710 844 -1253 966
-64 14 -151 28 -194 31 l-79 5 97 -14z m-1266 -4931 c9 -242 -9 -481 -57 -762
-11 -65 -14 -73 -34 -73 -22 0 -22 3 -28 198 -8 250 -38 459 -98 695 -11 44
-18 81 -16 84 3 2 51 24 108 48 l104 44 7 -27 c4 -15 11 -108 14 -207z m-338
-12 c50 -223 75 -480 70 -703 l-3 -135 -50 -7 c-27 -4 -124 -17 -215 -28 -520
-64 -920 -191 -1249 -395 -370 -229 -675 -563 -871 -954 -43 -86 -113 -267
-144 -371 -22 -75 -25 -80 -25 -45 -1 22 8 99 19 170 105 684 439 1278 965
1719 201 169 402 306 664 457 199 113 767 387 807 389 6 0 21 -44 32 -97z
m249 -910 c-3 -10 -11 -43 -17 -73 -18 -79 -30 -95 -24 -30 9 100 14 120 30
120 10 0 14 -6 11 -17z"/>
<path d="M3799 10642 c-170 -89 -151 -343 30 -407 84 -29 169 -10 233 52 143
139 43 383 -157 383 -38 0 -67 -8 -106 -28z"/>
<path d="M4498 10311 c-46 -15 -83 -42 -108 -79 -20 -29 -25 -48 -25 -98 0
-55 4 -67 31 -101 39 -48 87 -73 144 -73 57 0 105 25 144 73 27 34 31 46 31
101 0 50 -5 69 -25 99 -42 61 -130 97 -192 78z"/>
<path d="M4962 9790 c-87 -53 -95 -157 -17 -230 22 -21 37 -25 85 -25 63 0 96
20 126 77 44 84 -29 198 -126 198 -19 0 -50 -9 -68 -20z"/>
<path d="M5360 9343 c-8 -3 -26 -15 -38 -27 -54 -48 -67 -117 -32 -173 72
-119 244 -81 258 56 5 61 -21 111 -72 135 -33 16 -86 20 -116 9z"/>
<path d="M7123 8804 c-49 -49 -10 -134 61 -134 55 0 93 57 75 110 -20 56 -91
69 -136 24z"/>
<path d="M6903 8444 c-18 -9 -39 -31 -48 -51 -33 -69 18 -153 92 -153 70 0
113 43 113 113 0 39 -21 72 -60 92 -36 19 -57 19 -97 -1z"/>
<path d="M11072 8227 c-65 -69 34 -163 102 -97 24 24 25 74 1 100 -25 28 -76
26 -103 -3z"/>
<path d="M10578 8223 c7 -3 16 -2 19 1 4 3 -2 6 -13 5 -11 0 -14 -3 -6 -6z"/>
<path d="M10625 8210 c11 -5 27 -9 35 -9 9 0 8 4 -5 9 -11 5 -27 9 -35 9 -9 0
-8 -4 5 -9z"/>
<path d="M10730 8178 c14 -6 63 -29 109 -50 287 -131 519 -381 636 -683 144
-373 118 -751 -77 -1107 -242 -443 -696 -762 -1308 -918 -356 -91 -718 -126
-1485 -145 -725 -18 -1129 -64 -1500 -172 -302 -87 -596 -233 -806 -398 -93
-73 -249 -230 -314 -315 -367 -479 -414 -1083 -121 -1535 76 -118 242 -281
358 -353 479 -296 1090 -220 1479 185 89 93 173 216 224 328 31 68 33 75 17
83 -26 14 -123 45 -127 41 -1 -2 -16 -34 -33 -71 -165 -366 -542 -608 -947
-608 -517 0 -956 381 -1035 899 -19 124 -8 330 24 456 66 256 180 456 375 659
371 383 891 599 1641 680 213 23 390 34 825 51 726 28 1080 67 1413 156 473
125 816 316 1098 612 377 394 507 915 349 1394 -89 268 -267 510 -487 660 -76
53 -260 146 -308 157 l-25 6 25 -12z"/>
<path d="M6539 8135 c-28 -15 -59 -70 -59 -105 0 -54 65 -120 118 -120 71 0
122 54 122 131 0 33 -6 47 -34 75 -28 28 -41 34 -77 34 -24 -1 -56 -7 -70 -15z"/>
<path d="M11374 8081 c-87 -53 -50 -183 52 -183 48 0 81 25 95 70 14 48 -6 94
-51 117 -38 20 -58 19 -96 -4z"/>
<path d="M6111 7884 c-43 -36 -58 -89 -38 -137 18 -42 68 -77 112 -77 44 0 94
35 112 77 32 77 -27 163 -112 163 -32 0 -51 -7 -74 -26z"/>
<path d="M522 7423 c-280 -586 -434 -1147 -504 -1833 -19 -188 -16 -727 6
-920 22 -202 42 -336 72 -490 265 -1335 1040 -2512 2154 -3272 383 -262 857
-497 1293 -642 980 -326 2025 -351 3038 -72 219 60 494 158 704 251 139 61
315 149 315 157 0 9 -41 91 -58 116 -7 11 -47 -4 -183 -71 -568 -279 -1171
-445 -1816 -502 -222 -20 -660 -19 -868 0 -646 62 -1225 224 -1788 502 -384
189 -703 396 -1037 672 -140 115 -495 469 -609 606 -908 1093 -1332 2480
-1176 3850 68 596 242 1198 487 1689 22 43 37 80 35 82 -2 2 -31 -53 -65 -123z"/>
<path d="M8263 7134 c-54 -27 -77 -77 -74 -158 1 -39 66 -102 113 -111 50 -9
121 23 148 67 73 119 -61 264 -187 202z"/>
<path d="M7384 6986 c-43 -19 -64 -53 -64 -104 0 -121 172 -144 210 -28 28 85
-65 168 -146 132z"/>
<path d="M1970 6926 c0 -2 8 -10 18 -17 15 -13 16 -12 3 4 -13 16 -21 21 -21
13z"/>
<path d="M12050 6581 c-19 -10 -80 -33 -135 -51 -328 -105 -370 -124 -439
-200 -35 -39 -71 -98 -64 -106 2 -2 26 13 54 32 74 54 182 102 244 108 l55 6
-51 -18 c-91 -32 -196 -102 -286 -192 -49 -47 -88 -92 -88 -99 0 -12 22 -13
124 -8 205 11 350 51 431 120 45 37 83 115 117 235 16 59 40 126 53 150 13 23
23 42 22 42 -1 -1 -18 -9 -37 -19z"/>
<path d="M9865 6485 c-17 -41 -79 -132 -128 -189 -28 -32 -141 -136 -252 -231
-283 -243 -369 -342 -410 -470 -20 -66 -17 -197 7 -253 l14 -32 21 22 c29 32
80 115 143 233 29 55 70 125 91 156 40 60 134 151 180 174 25 14 23 7 -27 -62
-75 -105 -131 -201 -175 -303 -36 -84 -65 -192 -55 -208 9 -16 216 8 293 33
289 97 384 322 338 805 -10 102 -21 221 -24 265 -5 58 -10 74 -16 60z"/>
<path d="M462 5745 c0 -16 2 -22 5 -12 2 9 2 23 0 30 -3 6 -5 -1 -5 -18z"/>
<path d="M453 5650 c0 -30 2 -43 4 -27 2 15 2 39 0 55 -2 15 -4 2 -4 -28z"/>
<path d="M436 5388 c-19 -516 68 -1112 235 -1612 331 -993 1003 -1865 1869
-2428 1363 -886 3058 -1009 4535 -330 444 204 837 462 1605 1052 684 525 966
720 1351 933 487 269 958 417 1499 472 202 21 647 16 830 -9 113 -16 368 -62
393 -71 13 -6 51 135 39 146 -10 10 -277 57 -432 76 -195 24 -664 24 -860 0
-700 -86 -1253 -300 -1929 -747 -229 -151 -441 -306 -790 -579 -936 -730
-1183 -901 -1636 -1131 -503 -256 -1009 -406 -1601 -477 -208 -24 -767 -25
-970 0 -665 80 -1271 278 -1824 597 -1221 705 -2070 1965 -2259 3355 -34 249
-42 377 -42 668 0 152 -2 277 -3 277 -2 0 -6 -87 -10 -192z"/>
<path d="M4209 5516 c-113 -40 -176 -153 -149 -265 50 -208 343 -233 426 -36
21 51 21 133 -2 180 -26 56 -81 103 -137 120 -61 18 -90 18 -138 1z"/>
<path d="M3702 4979 c-96 -48 -128 -169 -69 -258 49 -74 140 -100 223 -62 136
62 136 260 0 322 -54 24 -101 24 -154 -2z"/>
<path d="M902 4769 c-131 -84 -67 -289 90 -289 50 0 97 26 132 73 29 39 29
125 0 164 -54 73 -152 96 -222 52z"/>
<path d="M11335 4176 c-102 -44 -122 -172 -40 -245 134 -117 322 64 208 200
-46 54 -109 71 -168 45z"/>
<path d="M10736 4078 c-53 -31 -78 -80 -73 -139 5 -57 30 -93 85 -120 97 -48
206 21 206 131 0 113 -122 185 -218 128z"/>
<path d="M1230 3994 c-138 -60 -178 -235 -80 -347 51 -57 97 -79 170 -79 127
0 220 95 220 224 -1 91 -51 169 -132 202 -47 20 -132 20 -178 0z"/>
<path d="M10200 3858 c-42 -29 -60 -61 -60 -111 0 -57 25 -96 77 -119 77 -34
146 -6 177 73 13 31 14 49 6 78 -23 88 -127 129 -200 79z"/>
<path d="M9739 3531 c-55 -55 -30 -148 45 -167 74 -18 140 48 122 122 -19 75
-112 100 -167 45z"/>
<path d="M1815 3197 c-92 -37 -151 -95 -184 -181 -27 -72 -27 -130 0 -202 75
-199 330 -258 478 -112 70 70 86 108 86 213 0 105 -18 148 -87 215 -73 70
-207 100 -293 67z"/>
<path d="M9372 3175 c-39 -33 -48 -74 -27 -118 30 -63 104 -76 157 -28 28 25
33 36 32 72 -3 86 -97 129 -162 74z"/>
</g>
</svg>
