<?xml version="1.0" encoding="UTF-8"?>
<!DOCTYPE svg  PUBLIC '-//W3C//DTD SVG 1.1//EN'  'http://www.w3.org/Graphics/SVG/1.1/DTD/svg11.dtd'>
<svg enable-background="new 0 0 1920 1469" version="1.1" viewBox="0 0 1920 1469" xml:space="preserve" xmlns="http://www.w3.org/2000/svg">
<g fill="#4A7EBB">
	<path d="m754.26 97.4c33.61-17.43 70.73-29.07 108.74-30.44 9.22 0.27 18.53 0.96 27.43 3.56 18.64 5.28 35.39 15.7 50.42 27.72 24.35 20.05 44.93 44.48 61.74 71.12 7.93 13.1 16.06 26.45 19.72 41.49 3.17 13.78 3.35 28.08 1.95 42.1-1.84 22.46-6.96 44.58-7.56 67.14-0.93 4.63 0.24 9.28 0.34 13.93 0.89 13.33 5.91 26.85 15.95 36 11.13 9.56 24.81 15.42 38.37 20.64 34.59 12.97 70.84 21.95 103.71 39.18 18.66 9.67 36.06 22.35 49.27 38.83 11.33 13.75 18.67 30.3 23.79 47.25 7.2 24.09 10.58 49.12 12.94 74.1 4.52 49.58 4.55 99.41 9.2201 148.98 2.47 23.09 5.5299 46.39 13.42 68.36 13.15 33.22 34.15 63.31 60.86 87.06 27.05 24.5 58.69 43.03 89.93 61.58-5.67 9.54-11.14 19.2-17.08 28.57-14.77-9.31-30.11-17.71-44.64-27.39-31.41-20.38-61.02-44.34-83.88-74.22-13.49-17.32-24.48-36.51-33.27-56.6-7.1-16.24-10.99-33.65-14.12-51.03-7.3101-45.77-7.9-92.21-10.49-138.38-1.62-29.43-3.52-58.95-8.96-87.96-3.5601-17.8-8.28-35.74-17.72-51.41-8.59-14.1-21.58-24.92-35.61-33.32-17.85-10.76-37.55-17.88-57.15-24.7-19.51-6.86-39.45-12.56-58.58-20.46-13.02-5.28-25.8-11.51-36.91-20.19-22.5-16.7-33.26-45.49-32.52-72.92-0.76-29.94 7.68-59.16 8.38-89.02-0.09-9.65-1.1-19.65-5.51-28.38-13.67-28-32.77-53.21-55.14-74.82-13.91-12.73-29.35-24.57-47.45-30.57-15.7-5.17-32.48-2.52-48.38 0.17-19.19 4.05-38.05 9.96-55.72 18.51-15.97 7.34-31.25 16.63-43.84 29.01-6.43 6.73-12.2 14.71-13.82 24.08-2.89 15.68-0.36 31.69 2.56 47.18 4.18 20.22 10.53 39.95 18.02 59.19 8.24 21.23 17.98 41.89 29.26 61.68 7.04 12.02 14.5 23.92 23.69 34.45 24.53 26.65 55.75 46.27 88.39 61.48 15.02 6.59 30.52 12.65 46.86 14.9 5.64 0.91 12.08-0.55 15.4-5.58 7.08-9.86 9.68-22.04 12.22-33.69 2.49-12.83 4.27-25.78 5.7-38.76 10.96 1.49 21.95 2.85 32.92 4.34-1.84 16.45-4.07 32.91-7.82 49.05-3.62 14.71-8.58 29.69-18.58 41.39-8.5 10.19-21.46 16.29-34.7 16.65-12.74 0.1-25.2-3.22-37.29-6.93-31.33-10.61-60.84-26.26-87.75-45.43-12.39-9.09-24.4-18.8-35.03-29.91-13.49-13.99-24.08-30.43-33.75-47.2-19.12-33.74-34.15-69.81-44.83-107.1-4.11-15.27-7.47-30.8-9-46.56-0.69-6.68-0.3-13.4-0.42-20.1-0.08-16.65 5.56-33.2 15.79-46.34 13.24-17.31 31.56-29.96 50.53-40.28z"/>
	<path d="m1018.4 470.52c8.8-2.61 17.9-4.06 27-5.19 1.67 10.94 3.3 21.89 4.83 32.86-13.29 1.71-27.25 3.72-38.51 11.57-11.63 7.8-19.4 19.88-26.02 31.94-7.8199 14.4-11.31 30.58-14.24 46.55-7.57 44.43-11.58 89.63-24.05 133.09-6.59 23.42-15.53 46.27-27.72 67.36-18.22 30.48-40.84 58.07-64.61 84.35-7.21 7.78-14.35 15.62-21.98 22.99-5.72 6.32-11.67 12.43-17.96 18.18-49.67 48.66-102.83 93.62-155.92 138.48-7.13-8.46-14.54-16.69-21.42-25.36 27.89-23.21 55.37-46.92 82.68-70.82 22.83-20.17 45.53-40.51 67.26-61.85 3.98-4.37 8.73-7.94 12.72-12.29 6.32-7.36 13.78-13.64 20.2-20.91 14.8-15.59 28.95-31.81 42.16-48.78 10.84-14.06 21.4-28.44 30.07-43.97 21.23-38.39 30.09-82.04 36.53-125.01 4.19-26.21 6.98-52.68 12.87-78.59 2.77-11.44 6.04-22.87 11.41-33.4 7.11-14.71 16.03-28.79 27.96-40.08 10.3-9.8602 23-17.26 36.74-21.12z"/>
	<path d="m860.6 550.56c12.11-12.97 26.32-23.73 40.23-34.68 5.3 7.44 11.39 14.31 16.51 21.88-12.33 9.42-24.61 19.02-35.47 30.15-8.33 8.1-15.39 17.4-21.93 26.98-9.16 14.27-17.07 29.44-22.59 45.51-9.17 27.61-14.84 56.21-21.07 84.58-5.63 25.89-11.28 51.82-19.09 77.16-4.02 12.5-8.52 24.9-14.58 36.58-9.99 18.75-23.47 35.38-37.96 50.83-19.37 20.52-40.48 39.43-63.13 56.28-5.26-7.38-10.51-14.76-15.93-22.01 30.77-24 60.48-50.22 83.15-82.24 15.96-22.11 23.02-48.88 29.89-74.85 7.68-31.41 13.93-63.15 21.38-94.61 4.28-17.73 8.92-35.45 15.82-52.37 10.77-25.39 25.47-49.37 44.77-69.19z"/>
	<path d="m1060.5 730.61c3.45-16.23 4.87-32.79 7.14-49.18 9.1 1.04 18.22 1.97 27.3 3.23-2.85 21.51-5.01 43.2-10.3 64.31-5.4701 21.83-13.44 43.2-25.14 62.49-18.67 31.85-45.64 57.75-73.58 81.44-49.75 41.32-104.08 76.58-157.71 112.57-5.12-7.64-10.12-15.36-15.34-22.93 33.58-22.16 67.11-44.4 99.81-67.85 31.51-22.7 62.47-46.46 89.86-74.08 11.7-12.46 22.86-25.6 31.7-40.29 13.11-21.27 21.71-45.19 26.26-69.71z"/>
	<path d="m958.89 918.36c8.68-5.77 17.38-11.52 25.87-17.55 10.7 16.26 21.9 32.22 31.44 49.21 9.72 17.63 18.63 36.52 19.78 56.95 1.53 20.46-4.8099 40.36-11.5 59.42-9.84-3.48-19.72-6.8201-29.57-10.25 4.02-11.46 8.07-23.05 9.57-35.16 1.58-12.21-0.85-24.66-5.74-35.87-10.25-23.92-25.53-45.17-39.85-66.75z"/>
	<path d="m747.24 1013.3c26.33-5.01 53.69-4.57 79.84 1.29 19.35 4.14 38.06 10.79 56.55 17.74 22.41 8.47 44.44 17.92 66.29 27.76 36.08 15.85 71.83 32.46 108.1 47.88 35.88 15.04 72.29 29.29 110.12 38.66 21.9 5.1799 44.51 8.73 67.03 6.5699 38.08-3.13 73.88-18.2 107.57-35.39 21.3-10.89 42.11-22.7 63.33-33.74 15.28-8.15 30.89-15.75 47.08-21.92 21.6-8.3101 44.58-14.14 67.88-13.43 45.56 0.65 90.04 14.51 130.61 34.63 43.68 21.69 83.79 49.64 123.65 77.53-6.42 9.03-12.43 18.34-19.05 27.22-33.41-23.47-67.04-46.83-102.88-66.5-36.62-19.89-76.47-35.54-118.34-38.91-13.02-1.0599-26.24-1.37-39.1 1.28-18.01 3.61-35.26 10.27-51.82 18.12-37.98 18.09-73.78 40.53-112.19 57.75-19.87 9.08-40.58 16.42-61.84 21.48-15.5 3.13-31.24 5.8-47.1 5.5-22.26 0.53-44.4-3.36-65.92-8.76-41.09-10.35-80.49-26.21-119.43-42.68-36.63-15.8-72.87-32.48-109.34-48.66-21.76-9.52-43.65-18.79-65.95-26.99-21.45-7.45-43.32-14.72-66.12-16.29-23.75-1.5599-48.07 1.4-70.06 10.79-25.08 10.35-46.8 28.27-62.41 50.39-3.84 5.7-7.74 11.48-10.2 17.94-2.94 11.44 1.61 23.14 6.4901 33.37 12.55 23.37 32.24 42.43 54.65 56.35 18.46 9.74 38.65 15.55 58.62 21.33 44.71 12.15 90.11 21.62 135.73 29.61-2.32 10.89-4.54 21.81-6.91 32.69-43.31-8.05-86.6-16.59-129.18-28.03-20.4-5.48-40.76-11.46-60.22-19.75-18.97-7.84-35.35-20.73-50.17-34.72-13.86-13.9-26.13-29.63-34.5-47.46-8.19-17.76-12.04-38.94-4.57-57.6 3.63-8.05 7.92-15.9 13.39-22.84-11.07 5.45-23.72 6.1699-35.85 6.1899-11.04-0.53-22.11-1.2999-32.99-3.36-23.32-4.71-46.01-11.98-68.85-18.54-23.73-6.9099-47.55-13.69-71.83-18.4-14.28-2.75-28.78-4.89-43.36-4.5-12.28-0.36-24.29 3.0399-35.71 7.26-26.54 10.16-49.81 27.34-70.33 46.74-13.53 13.36-26.3 27.87-35.31 44.73-11.22 22.29-11.92 48.73-5.94 72.63 3.23 12.05 8.43 23.85 16.84 33.19 9.26 9.6 20.92 16.48 32.84 22.24 22.5 10.32 46.92 16.37 71.58 18.23 25.23 2.2201 50.48-1.73 75.11-6.9399 40.54-8.97 80.67-20.86 118.32-38.56 9.46-4.8799 19.01-9.8999 27.11-16.9 5.08-4.24 8.2-10.74 8.2-17.36-0.86-10.21-5.41-19.63-10.57-28.31-11.8-19.2-26.57-36.31-41.1-53.46 8.3799-7.29 16.94-14.37 25.49-21.47 13.46 16.44 27.48 32.51 39.27 50.24 8.59 13.44 16.63 27.81 19.16 43.77 1.78 12.22 0.35 25.28-6.06 36.03-8.17 14.57-22.62 24.07-36.88 31.98-18.31 9.9501-37.73 17.76-57.42 24.53-24.73 8.54-49.94 15.74-75.5 21.33-27.87 5.9901-56.43 10.69-84.99 8.4-25.54-1.7-50.88-7.1799-74.67-16.68-16.3-6.6001-32.06-15-45.56-26.39-14.12-11.73-24.02-27.86-30.06-45.05-11.16-32.41-11.09-69.12 2.55-100.78 10.66-23.1 27.63-42.58 45.67-60.22 16.42-15.66 34.62-29.5 54.36-40.7 14.61-8.1901 30.24-14.69 46.56-18.53 17.36-4.41 35.52-3.82 53.17-1.81 48.92 6.28 95.63 22.81 143.03 35.66 18.72 5.4301 38.24 8.41 57.76 7.52 3.52-0.35 7.1-0.7 10.45-1.92 2.66-0.95 4.13-3.5299 5.86-5.5699 7.84 5.75 15.39 11.89 23.04 17.89 25.17-28.28 59.75-48.17 96.98-55.32z"/>
	<path d="m355.36 1075.3c11.3-4.1399 23.76-3.2999 35.28-0.6-1.44 7.75-2.88 15.5-4.54 23.21-9.19-2.55-19.58-3.1901-28.06 1.8999-15.61 9.2301-28.45 22.37-40.03 36.17-17.9 21.31-34.23 43.89-50.5 66.46-6.41-4.62-12.84-9.23-19.14-13.99 10.87-14.48 21.31-29.27 32.41-43.59 13.71-17.78 27.78-35.51 44.71-50.37 9.06-7.6399 18.64-15.06 29.87-19.19z"/>
	<path d="m865.14 1137.5c38.33 16.56 76.53 33.42 114.43 50.96 37.3 17.5 74.59 35.37 109.4 57.55 13.27 9.0699 26.76 18.43 36.77 31.21 5.61 7.02 9.7 15.61 9.83 24.73 0.1101 10.69-5.8899 20.96-14.71 26.81-5.99 3.9099-12.76 6.39-19.52 8.62-23.44 7.14-47.82 10.55-72.03 13.94-48.59 6.35-97.47 10.19-146.34 13.69-49.3 3.26-98.65 5.86-147.99 7.8999-19.12 0.6901-38.21 1.6901-57.34 1.89 4.28-8.38 8.37-16.85 12.71-25.2-8.46 6.27-16.82 12.66-25.29 18.91-5.71-6.9301-4.18-18.23 3.13-23.39 5.9-4.5 13.85-3.4601 20.81-3.67 96.07-3.58 192.23-8.16 287.98-17.52 24.92-2.59 49.84-5.3999 74.57-9.47 13.22-2.34 26.49-4.6899 39.36-8.6 3.88-1.25 7.8099-2.51 11.35-4.59-5.1901-8.2101-12.98-14.24-20.65-19.98-14.98-10.78-30.95-20.09-47.22-28.77-35.5-18.9-72.06-35.7-108.74-52.16-24.57-10.89-49.09-21.86-73.78-32.45 4.3599-10.17 8.8799-20.26 13.27-30.41z"/>
	<path d="m272.15 1206.1c14.41 8.4301 29.58 16.27 41.43 28.25 7.86 8.02 12.31 18.71 14.69 29.54-7.57 2.12-15.18 4.05-22.76 6.11-1.62-6.51-3.23-13.45-8.06-18.42-10.4-11.01-24.5-17.3-37.09-25.34 4.07-6.6299 7.83-13.45 11.79-20.14z"/>
</g>
</svg>
