<?xml version="1.0" encoding="utf-8"?>
<!-- Generator: Adobe Illustrator 14.0.0, SVG Export Plug-In . SVG Version: 6.00 Build 43363)  -->
<!DOCTYPE svg PUBLIC "-//W3C//DTD SVG 1.1//EN" "http://www.w3.org/Graphics/SVG/1.1/DTD/svg11.dtd">
<svg version="1.1" id="Layer_1" xmlns="http://www.w3.org/2000/svg" xmlns:xlink="http://www.w3.org/1999/xlink" x="0px" y="0px"
	 width="600px" height="600px" viewBox="0 0 600 600" enable-background="new 0 0 600 600" xml:space="preserve">
<path fill="#00749F" stroke="#000000" d="M371.816,287.409c-6.623-0.27-11.771-5.857-11.5-12.48l0.133-3.264
	c0.271-6.621,5.857-11.77,12.48-11.5l89.838,3.674c10.834-5.826,20.785-11.713,29.912-17.6l-69.328-2.834
	c-6.623-0.271-11.771-5.859-11.5-12.48l0.15-3.705c0.271-6.623,5.857-11.771,12.48-11.5l103.939,4.248
	c7.385-6.224,13.93-12.341,19.721-18.273l-66.648-2.725c-5.977-0.245-10.623-5.288-10.379-11.266
	c0.244-5.977,5.287-10.623,11.264-10.379l80.313,3.283c1.129,0.046,2.209,0.264,3.219,0.627
	c18.102-23.717,23.59-42.056,23.85-48.388c0.723-17.703-197.576,70.838-214.369,70.151s-95.131,88.918-95.855,106.623
	c-0.723,17.701,7.648,17.084,24.025,13.018c40.488-10.051,75.395-21.51,105.471-33.708L371.816,287.409z"/>
<path fill="#00749F" stroke="#000000" d="M238.728,287.409c6.622-0.271,11.771-5.857,11.5-12.48l-0.134-3.264
	c-0.271-6.621-5.857-11.771-12.48-11.5l-89.838,3.673c-10.833-5.825-20.785-11.712-29.912-17.6l69.329-2.834
	c6.622-0.271,11.771-5.858,11.5-12.479l-0.151-3.706c-0.271-6.622-5.857-11.771-12.48-11.5l-103.938,4.249
	c-7.385-6.224-13.931-12.341-19.722-18.274l66.648-2.725c5.977-0.245,10.624-5.288,10.38-11.265
	c-0.245-5.977-5.288-10.624-11.265-10.379l-80.312,3.283c-1.13,0.046-2.209,0.264-3.22,0.626
	c-18.102-23.716-23.59-42.055-23.849-48.387c-0.724-17.703,197.576,70.838,214.369,70.151s95.129,88.917,95.854,106.623
	c0.725,17.701-7.648,17.084-24.023,13.018c-40.489-10.051-75.396-21.51-105.472-33.708L238.728,287.409z"/>
<g>
	<path fill="#9FFFFD" stroke="#000000" d="M378.106,155.047c4.581,8.414,15.116,11.521,23.53,6.939
		c8.414-4.58,7.424-8.689,10.432-17.785c41.71-126.115-10.754-7.334-20.278-8.366C377.995,134.343,373.525,146.633,378.106,155.047z
		"/>
	<ellipse fill="#00C3DF" stroke="#000000" cx="391.791" cy="148.487" rx="13.344" ry="12.65"/>
</g>
<g>
	<path fill="#9FFFFD" stroke="#000000" d="M243.866,155.048c-4.582,8.414-15.117,11.521-23.531,6.939
		c-8.413-4.581-7.423-8.69-10.431-17.785c-41.71-126.116,10.753-7.335,20.278-8.366
		C243.977,134.343,248.446,146.634,243.866,155.048z"/>
	<ellipse fill="#00C3DF" stroke="#000000" cx="230.182" cy="148.486" rx="13.344" ry="12.65"/>
</g>
<path fill="none" stroke="#2AFF00" stroke-width="7" stroke-miterlimit="27" d="M795.612,403.408
	c0.563,1.312,0.903,2.672,1.021,4.082"/>
<ellipse fill="#00749F" stroke="#000000" cx="309.554" cy="115.67" rx="30.482" ry="29.896"/>
<rect x="233.347" y="103.211" fill="#9FFFFD" stroke="#000000" width="152.414" height="95.291"/>
<rect x="385.761" y="133.573" fill="#00749F" stroke="#000000" width="10.479" height="34.567"/>
<rect x="305.457" y="67.711" fill="#00C3DF" stroke="#000000" width="8.859" height="18.43"/>
<ellipse fill="#9FFFFD" stroke="#000000" cx="309.888" cy="61.286" rx="13.454" ry="13.195"/>
<ellipse fill="#00749F" stroke="#000000" cx="274.19" cy="137.158" rx="21.91" ry="21.487"/>
<ellipse fill="#00749F" stroke="#000000" cx="344.917" cy="137.158" rx="21.91" ry="21.486"/>
<ellipse fill="#00C3DF" stroke="#000000" cx="274.189" cy="137.157" rx="19.368" ry="18.995"/>
<ellipse fill="#00C3DF" stroke="#000000" cx="344.918" cy="137.157" rx="19.368" ry="18.995"/>
<rect x="252.612" y="168.14" fill="#00749F" stroke="#000000" width="114.548" height="21.487"/>
<rect x="254.821" y="171.293" fill="#00C3DF" stroke="#000000" width="109.465" height="15.181"/>
<path fill="#00749F" stroke="#000000" d="M335.234,204.342c0,3.225-2.668,5.839-5.955,5.839h-39.452
	c-3.288,0-5.955-2.615-5.955-5.839l0,0c0-3.226,2.667-5.84,5.955-5.84h39.452C332.566,198.502,335.234,201.117,335.234,204.342
	L335.234,204.342z"/>
<path fill="#00749F" stroke="#000000" d="M335.568,216.021c0,3.225-2.667,5.839-5.955,5.839h-39.452
	c-3.289,0-5.955-2.614-5.955-5.839l0,0c0-3.225,2.666-5.839,5.955-5.839h39.452C332.901,210.181,335.568,212.795,335.568,216.021
	L335.568,216.021z"/>
<polygon fill="#9FFFFD" stroke="#000000" points="204.769,221.86 204.769,348.407 204.769,348.407 252.278,476.436 385.76,476.436 
	423.863,348.407 423.863,221.86 "/>
<rect x="194.006" y="235.405" fill="#00749F" stroke="#000000" width="10.763" height="45.777"/>
<rect x="423.863" y="235.405" fill="#00749F" stroke="#000000" width="10.764" height="45.777"/>
<rect x="434.627" y="227.756" fill="#9FFFFD" stroke="#000000" width="62.274" height="61.075"/>
<rect x="452.101" y="288.831" fill="#00749F" stroke="#000000" width="27.327" height="53.777"/>
<path fill="#00C3DF" stroke="#000000" d="M465.764,339.463c-16.129,0-29.203,12.446-29.203,27.803
	c0,10.343,5.937,19.358,14.735,24.148l9.743-8.698c-7.033-1.948-12.176-8.124-12.176-15.45c0-8.886,7.566-16.089,16.9-16.089
	c9.335,0,16.9,7.203,16.9,16.089c0,7.274-5.071,13.419-12.029,15.41l8.95,9.087c9.156-4.692,15.383-13.902,15.383-24.497
	C494.968,351.909,481.893,339.463,465.764,339.463z"/>
<rect x="222.868" y="238.473" fill="#00749F" stroke="#000000" width="133.081" height="95.058"/>
<ellipse fill="#00749F" stroke="#000000" cx="391" cy="307.022" rx="21.433" ry="21.021"/>
<ellipse fill="#00749F" stroke="#000000" cx="391" cy="258.294" rx="21.433" ry="21.02"/>
<rect x="233.347" y="249.418" fill="#00C3DF" stroke="#000000" width="72.11" height="73.804"/>
<rect x="314.316" y="249.418" fill="#9FFFFD" stroke="#000000" width="30.602" height="73.804"/>
<ellipse fill="#00C3DF" stroke="#000000" cx="391" cy="258.294" rx="16.529" ry="16.209"/>
<ellipse fill="#9FFFFD" stroke="#000000" cx="391" cy="307.023" rx="16.529" ry="16.209"/>
<ellipse fill="#00749F" stroke="#000000" cx="236.541" cy="350.878" rx="8.433" ry="8.271"/>
<ellipse fill="#00749F" stroke="#000000" cx="309.553" cy="350.119" rx="8.433" ry="8.271"/>
<ellipse fill="#00749F" stroke="#000000" cx="284.206" cy="350.119" rx="8.433" ry="8.271"/>
<ellipse fill="#00749F" stroke="#000000" cx="260.712" cy="350.119" rx="8.433" ry="8.271"/>
<line fill="none" stroke="#000000" x1="228.107" y1="372.736" x2="260.712" y2="465.225"/>
<line fill="none" stroke="#000000" x1="244.41" y1="372.736" x2="269.145" y2="465.225"/>
<line fill="none" stroke="#000000" x1="256.777" y1="372.736" x2="275.773" y2="465.225"/>
<line fill="none" stroke="#000000" x1="269.402" y1="372.736" x2="283.872" y2="465.225"/>
<line fill="none" stroke="#000000" x1="283.872" y1="372.736" x2="292.639" y2="465.225"/>
<line fill="none" stroke="#000000" x1="293.557" y1="372.736" x2="301.12" y2="465.225"/>
<line fill="none" stroke="#000000" x1="305.457" y1="372.736" x2="309.888" y2="465.225"/>
<line fill="none" stroke="#000000" x1="396.239" y1="372.736" x2="378.812" y2="465.225"/>
<line fill="none" stroke="#000000" x1="385.761" y1="372.736" x2="369.567" y2="465.225"/>
<line fill="none" stroke="#000000" x1="374.471" y1="372.736" x2="359.76" y2="465.225"/>
<line fill="none" stroke="#000000" x1="359.76" y1="372.736" x2="351.187" y2="465.225"/>
<line fill="none" stroke="#000000" x1="325.551" y1="372.736" x2="323.007" y2="464.29"/>
<line fill="none" stroke="#000000" x1="314.317" y1="372.736" x2="317.985" y2="464.29"/>
<line fill="none" stroke="#000000" x1="338.043" y1="372.736" x2="332.426" y2="464.29"/>
<line fill="none" stroke="#000000" x1="348.051" y1="372.736" x2="341.782" y2="464.29"/>
<rect x="265.299" y="476.436" fill="#00749F" stroke="#000000" width="27.543" height="61.658"/>
<rect x="333.492" y="476.436" fill="#00749F" stroke="#000000" width="29.117" height="61.658"/>
<polygon fill="#9FFFFD" stroke="#000000" points="303.858,542.308 303.899,542.286 279.071,529.686 254.243,542.286 
	253.203,542.286 246.153,567.991 311.99,567.991 "/>
<polygon fill="#9FFFFD" stroke="#000000" points="372.838,542.308 372.879,542.286 348.05,529.686 323.223,542.286 322.182,542.286 
	315.132,567.991 380.97,567.991 "/>
<rect x="222.868" y="133.573" fill="#00749F" stroke="#000000" width="10.479" height="34.566"/>
<polygon fill="#00DFA3" stroke="#000000" points="162.868,473.967 162.868,473.967 131.746,286.002 193.991,286.002 "/>
<line fill="#00DFA3" stroke="#000000" x1="138.707" y1="328.043" x2="189.07" y2="315.72"/>
<line fill="#00DFA3" stroke="#000000" x1="144.927" y1="365.613" x2="183.249" y2="350.879"/>
<line fill="#00DFA3" stroke="#000000" x1="151.186" y1="403.408" x2="175.917" y2="395.158"/>
<line fill="#00DFA3" stroke="#000000" x1="157.057" y1="438.869" x2="170.224" y2="429.54"/>
<rect x="131.73" y="227.756" fill="#9FFFFD" stroke="#000000" width="62.275" height="61.075"/>
</svg>
