<?xml version="1.0" standalone="no"?>
<!DOCTYPE svg PUBLIC "-//W3C//DTD SVG 20010904//EN"
 "http://www.w3.org/TR/2001/REC-SVG-20010904/DTD/svg10.dtd">
<svg version="1.0" xmlns="http://www.w3.org/2000/svg"
 width="528.000000pt" height="528.000000pt" viewBox="0 0 528.000000 528.000000"
 preserveAspectRatio="xMidYMid meet">
<metadata>
Created by potrace 1.11, written by Peter Selinger 2001-2013
</metadata>
<g transform="translate(0.000000,528.000000) scale(0.100000,-0.100000)"
fill="#000000" stroke="none">
<path d="M2408 5269 c-21 -5 -63 -29 -93 -54 -31 -25 -60 -45 -65 -45 -6 0 -9
-3 -9 -7 4 -22 -4 -31 -41 -49 -23 -11 -38 -24 -35 -31 2 -7 -5 -18 -17 -24
-16 -8 -18 -13 -8 -19 10 -6 7 -16 -14 -40 -39 -46 -53 -78 -60 -135 -4 -27
-9 -59 -12 -70 -3 -11 -7 -38 -10 -60 -2 -22 -7 -53 -10 -70 -3 -16 -6 -81 -8
-144 -2 -106 -4 -115 -23 -122 -12 -4 -24 -17 -28 -29 -11 -35 -8 -105 7 -141
8 -19 15 -53 16 -75 7 -118 37 -167 92 -149 16 5 20 2 20 -17 0 -33 27 -156
45 -208 17 -47 28 -154 29 -279 l1 -74 -70 -44 c-66 -41 -188 -103 -203 -103
-4 0 -20 -7 -37 -16 -85 -46 -205 -83 -298 -93 -346 -39 -577 -172 -686 -396
-44 -90 -67 -175 -77 -285 -4 -51 -16 -96 -36 -140 -24 -53 -31 -81 -33 -148
-3 -88 11 -162 39 -204 13 -20 14 -34 7 -74 -15 -78 -6 -240 17 -304 58 -163
94 -201 227 -242 116 -36 126 -37 260 -13 143 26 147 26 152 -10 4 -33 20
-140 29 -194 3 -19 10 -45 15 -58 l9 -23 1153 0 1154 0 18 63 c21 70 21 72 23
107 2 24 5 26 65 25 155 0 305 18 357 45 56 29 140 100 145 123 26 122 65 345
65 372 0 37 54 211 72 233 15 17 3 216 -16 273 -8 24 -17 77 -20 118 -4 40 -8
83 -11 95 -3 11 -7 32 -9 46 -32 183 -219 443 -368 514 -69 33 -174 64 -243
72 -27 4 -53 8 -56 10 -3 2 -43 6 -89 10 -84 6 -89 8 -345 114 -44 19 -91 42
-105 51 -14 10 -71 40 -127 68 l-101 50 -7 53 c-11 76 -6 270 8 358 12 69 14
75 35 73 56 -7 84 38 128 202 29 108 30 145 6 176 -16 20 -19 40 -17 127 1 57
-2 125 -7 150 -5 26 -11 73 -13 106 -3 38 -13 73 -30 101 -14 24 -25 50 -25
58 0 7 -18 28 -40 46 -29 23 -40 39 -40 59 0 36 -41 94 -117 166 -43 41 -162
105 -195 106 -15 0 -39 5 -55 11 -36 14 -236 19 -285 8z m127 -1415 c17 -2 41
-7 55 -9 64 -13 78 -15 118 -17 23 0 42 -2 42 -4 0 -7 -83 -43 -90 -39 -5 3
-11 1 -14 -4 -3 -5 -35 -3 -76 5 -68 13 -111 34 -141 70 -12 15 -10 16 31 9
25 -3 59 -9 75 -11z"/>
</g>
</svg>
